<?xml version="1.0" encoding="UTF-8"?>
<svg xmlns="http://www.w3.org/2000/svg" xmlns:xlink="http://www.w3.org/1999/xlink" viewBox="0 0 82 82">
<path fill="none" stroke-width="1" stroke-linecap="round" stroke-linejoin="round" stroke="rgb(0%, 0%, 0%)" stroke-opacity="1" stroke-miterlimit="10" d="M 4 6 L 28 6 L 28 12 L 4 12 Z M 4 6 " transform="matrix(2.5625, 0, 0, 2.5625, 0, 0)"/>
<path fill="none" stroke-width="1" stroke-linecap="round" stroke-linejoin="round" stroke="rgb(0%, 0%, 0%)" stroke-opacity="1" stroke-miterlimit="10" d="M 11 3 L 11 6 " transform="matrix(2.5625, 0, 0, 2.5625, 0, 0)"/>
<path fill="none" stroke-width="1" stroke-linecap="round" stroke-linejoin="round" stroke="rgb(0%, 0%, 0%)" stroke-opacity="1" stroke-miterlimit="10" d="M 21 3 L 21 6 " transform="matrix(2.5625, 0, 0, 2.5625, 0, 0)"/>
<path fill="none" stroke-width="1" stroke-linecap="round" stroke-linejoin="round" stroke="rgb(0%, 0%, 0%)" stroke-opacity="1" stroke-miterlimit="10" d="M 28 12 L 4 12 L 4 28 L 23.800305 28 L 24.699695 27.10061 C 26.800305 25 28 22.10061 28 19.10061 Z M 28 12 " transform="matrix(2.5625, 0, 0, 2.5625, 0, 0)"/>
<path fill="none" stroke-width="1" stroke-linecap="round" stroke-linejoin="round" stroke="rgb(0%, 0%, 0%)" stroke-opacity="1" stroke-miterlimit="10" d="M 23 28 L 23 23 C 24.60061 22.800305 26.10061 21.89939 27 20.5 L 28 19 " transform="matrix(2.5625, 0, 0, 2.5625, 0, 0)"/>
</svg>
