<?xml version="1.0" encoding="UTF-8"?>
<svg xmlns="http://www.w3.org/2000/svg" xmlns:xlink="http://www.w3.org/1999/xlink" viewBox="0 0 82 82">
<path fill="none" stroke-width="1" stroke-linecap="round" stroke-linejoin="round" stroke="rgb(0%, 0%, 0%)" stroke-opacity="1" stroke-miterlimit="4" d="M 12 22.919446 C 17.522342 22.919446 22.000238 18.44274 22.000238 12.920398 C 22.000238 7.396865 17.522342 2.92016 12 2.92016 C 6.477658 2.92016 1.999762 7.396865 1.999762 12.920398 C 1.999762 18.44274 6.477658 22.919446 12 22.919446 Z M 12 22.919446 " transform="matrix(3.28, 0, 0, 3.28, 1.64, 0)"/>
<path fill-rule="nonzero" fill="rgb(0%, 0%, 0%)" fill-opacity="1" d="M 43.296875 56.121094 L 43.296875 59.730469 C 43.296875 60.3125 43.066406 60.871094 42.652344 61.28125 C 42.242188 61.695312 41.683594 61.925781 41.097656 61.925781 C 40.515625 61.925781 39.957031 61.695312 39.546875 61.28125 C 39.132812 60.871094 38.902344 60.3125 38.902344 59.730469 L 38.902344 56.023438 C 37.445312 55.785156 36.054688 55.257812 34.804688 54.476562 C 33.550781 53.691406 32.46875 52.667969 31.621094 51.460938 C 31.308594 51.070312 31.136719 50.585938 31.128906 50.085938 C 31.128906 49.800781 31.183594 49.519531 31.296875 49.257812 C 31.40625 48.996094 31.570312 48.761719 31.777344 48.566406 C 31.984375 48.367188 32.226562 48.214844 32.492188 48.117188 C 32.757812 48.015625 33.042969 47.972656 33.324219 47.984375 C 33.605469 47.984375 33.886719 48.046875 34.140625 48.164062 C 34.394531 48.285156 34.621094 48.457031 34.800781 48.675781 C 35.851562 50.046875 37.273438 51.082031 38.902344 51.660156 L 38.902344 43.328125 C 34.539062 41.625 32.339844 39.066406 32.339844 35.75 C 32.40625 33.976562 33.105469 32.285156 34.308594 30.980469 C 35.511719 29.675781 37.140625 28.84375 38.902344 28.632812 L 38.902344 25.027344 C 38.902344 24.441406 39.132812 23.882812 39.546875 23.472656 C 39.957031 23.058594 40.515625 22.828125 41.097656 22.828125 C 41.683594 22.828125 42.242188 23.058594 42.652344 23.472656 C 43.066406 23.882812 43.296875 24.441406 43.296875 25.027344 L 43.296875 28.601562 C 44.515625 28.792969 45.6875 29.226562 46.734375 29.882812 C 47.785156 30.535156 48.6875 31.394531 49.398438 32.40625 C 49.710938 32.773438 49.894531 33.234375 49.921875 33.71875 C 49.929688 34 49.882812 34.277344 49.78125 34.542969 C 49.679688 34.804688 49.527344 35.042969 49.332031 35.246094 C 49.136719 35.449219 48.902344 35.609375 48.640625 35.71875 C 48.382812 35.828125 48.105469 35.882812 47.824219 35.882812 C 47.527344 35.882812 47.238281 35.816406 46.972656 35.691406 C 46.707031 35.566406 46.472656 35.386719 46.28125 35.160156 C 45.5 34.183594 44.46875 33.4375 43.296875 32.996094 L 43.296875 40.378906 L 44.117188 40.703125 C 48.28125 42.34375 50.875 44.707031 50.875 48.445312 C 50.824219 50.449219 50.015625 52.359375 48.605469 53.785156 C 47.199219 55.210938 45.300781 56.046875 43.296875 56.121094 Z M 38.902344 38.472656 L 38.902344 33.128906 C 38.371094 33.320312 37.917969 33.671875 37.597656 34.136719 C 37.28125 34.601562 37.117188 35.15625 37.128906 35.71875 C 37.125 36.300781 37.289062 36.871094 37.605469 37.359375 C 37.917969 37.851562 38.371094 38.238281 38.902344 38.472656 Z M 46.085938 48.542969 C 46.085938 46.96875 45.003906 46.019531 43.296875 45.265625 L 43.296875 51.824219 C 44.078125 51.707031 44.792969 51.308594 45.304688 50.707031 C 45.816406 50.101562 46.09375 49.335938 46.085938 48.542969 Z M 46.085938 48.542969 "/>
</svg>
